# xmcd CD database file
#
# Track frame offsets:
#	150
#	17594
#	33138
#	48425
#	60151
#	79469
#	97832
#	118126
#	135173
#	153251
#	166413
#	186559
#
# Disc length: 2721 seconds
#
# Revision: 2
# Processed by: cddbd v1.4PL0 Copyright (c) Steve Scherf et al.
# Submitted via: CDex 1.40Beta8
#
DISCID=8c0a9f0c
DTITLE=Gooseflesh - Chemical Garden
DYEAR=1999
DGENRE=Metal
TTITLE0=Burning soul
TTITLE1=Godbreed
TTITLE2=Cut that never heals
TTITLE3=Thin skinned Jesus
TTITLE4=Wraith
TTITLE5=The syndicate
TTITLE6=Art of treachery
TTITLE7=Controller
TTITLE8=Sore throat
TTITLE9=Voices
TTITLE10=Denial
TTITLE11=Absence
EXTD=YEAR: 1999 ID3G: 9
EXTT0=
EXTT1=
EXTT2=
EXTT3=
EXTT4=
EXTT5=
EXTT6=
EXTT7=
EXTT8=
EXTT9=
EXTT10=
EXTT11=
PLAYORDER=
